g Exported Mesh Combined Mesh 
v 108.2239 -4.466121 -88.46241
v 105.6135 -2.799546 -86.51771
v 107.6183 -3.325081 -89.73519
v 108.1018 -5.544234 -89.90487
v 109.7704 -6.788037 -89.02808
v 107.9205 -5.160521 -91.57411
v 106.5212 -3.269216 -92.17587
v 106.4668 -4.03514 -86.54565
v 109.658 -6.112742 -87.63211
v 108.1511 -4.480097 -87.23978
v 108.0981 -7.304493 -90.38998
v 108.0981 -7.304493 -90.38998
v 108.0981 -7.304493 -90.38998
v 106.8348 -9.091042 -88.99856
v 109.7704 -6.788037 -89.02808
v 106.6091 -8.225316 -90.20607
v 103.8569 -7.462665 -91.56834
v 101.7022 -8.241186 -89.30959
v 105.0949 -8.892227 -90.6397
v 103.9161 -9.496261 -88.31409
v 101.8761 -7.369207 -90.65174
v 106.6091 -8.225316 -90.20607
v 106.8348 -9.091042 -88.99856
v 102.4829 -7.344461 -86.60419
v 105.9325 -8.319079 -86.71975
v 103.9161 -9.496261 -88.31409
v 101.7495 -7.652983 -87.2288
v 101.8872 -5.101169 -86.82279
v 101.7022 -8.241186 -89.30959
v 106.8348 -9.091042 -88.99856
v 100.8445 -6.693336 -88.03906
v 101.3848 -4.736449 -88.33657
v 103.3062 -3.454057 -91.07428
v 103.7394 -2.490394 -88.3016
v 106.0574 -2.786275 -89.50147
v 106.5212 -3.269216 -92.17587
v 105.6135 -2.799546 -86.51771
v 107.6183 -3.325081 -89.73519
v 103.5506 -3.238378 -87.07661
v 101.8872 -5.101169 -86.82279
v 100.8445 -6.693336 -88.03906
v 104.3535 -3.005664 -86.03352
v 102.5528 -3.812154 -86.07077
v 101.8872 -5.101169 -86.82279
v 102.5033 -5.922685 -84.85609
v 105.603 -3.802805 -92.96175
v 103.9755 -5.178905 -93.14525
v 102.5033 -5.922685 -84.85609
v 104.2886 -3.924987 -84.72632
v 105.5043 -6.407825 -84.30854
v 102.5528 -3.812154 -86.07077
v 105.5597 -3.466928 -85.28026
v 106.6825 -6.3943 -85.48415
v 106.4668 -4.03514 -86.54565
v 104.3535 -3.005664 -86.03352
v 103.3457 -6.969176 -84.70889
v 105.1312 -7.360426 -84.8116
v 108.1511 -4.480097 -87.23978
v 106.6825 -6.3943 -85.48415
v 109.658 -6.112742 -87.63211
v 107.3767 -7.590514 -85.93779
v 107.957 -8.555645 -86.89884
v 102.99 -4.954031 -91.38022
v 101.8761 -7.369207 -90.65174
v 103.8569 -7.462665 -91.56834
v 100.9897 -5.905233 -89.39832
v 100.8445 -6.693336 -88.03906
v 101.7022 -8.241186 -89.30959
v 101.3848 -4.736449 -88.33657
v 103.3062 -3.454057 -91.07428
v 102.99 -4.954031 -91.38022
v 103.9755 -5.178905 -93.14525
v 103.8569 -7.462665 -91.56834
v 104.7188 -6.665389 -92.95007
v 109.7704 -6.788037 -89.02808
v 106.8348 -9.091042 -88.99856
v 107.957 -8.555645 -86.89884
v 105.9325 -8.319079 -86.71975
v 109.658 -6.112742 -87.63211
v 107.3767 -7.590514 -85.93779
v 106.6825 -6.3943 -85.48415
v 103.8569 -7.462665 -91.56834
v 106.6091 -8.225316 -90.20607
v 107.4789 -7.185712 -91.5009
v 104.7188 -6.665389 -92.95007
v 105.85 -5.389826 -93.24113
v 107.9205 -5.160521 -91.57411
v 105.603 -3.802805 -92.96175
v 103.9755 -5.178905 -93.14525
v 108.0981 -7.304493 -90.38998
v 106.5212 -3.269216 -92.17587
v 105.9325 -8.319079 -86.71975
v 103.3457 -6.969176 -84.70889
v 105.1312 -7.360426 -84.8116
v 102.4829 -7.344461 -86.60419
v 106.6825 -6.3943 -85.48415
v 102.5033 -5.922685 -84.85609
v 101.8872 -5.101169 -86.82279
v 105.5043 -6.407825 -84.30854
v 105.5597 -3.466928 -85.28026
v 104.3535 -3.005664 -86.03352
v 106.4668 -4.03514 -86.54565
v 105.6135 -2.799546 -86.51771
v 106.4668 -4.03514 -86.54565
v 104.3535 -3.005664 -86.03352

vn 0.7538269 0.6570591 -0.004275398
vn 0.2866128 0.8779763 0.3834196
vn 0.7526048 0.6538543 -0.07784898
vn 0.8938064 0.2680774 -0.359506
vn 0.9100696 -0.1409899 -0.3897373
vn 0.8462931 0.1189321 -0.5192718
vn 0.3308277 0.8326841 -0.4440611
vn 0.5798602 0.6296666 0.5169935
vn 0.8517367 0.1710259 0.4952723
vn 0.5671628 0.6710226 0.477551
vn 0.735067 -0.4272391 -0.526444
vn 0.735067 -0.4272391 -0.526444
vn 0.735067 -0.4272391 -0.526444
vn 0.35496 -0.9139428 -0.1967533
vn 0.9100696 -0.1409899 -0.3897373
vn 0.3652311 -0.6874675 -0.6276899
vn -0.2998762 -0.6065496 -0.7363232
vn -0.6064903 -0.7504959 -0.2625368
vn 0.05231518 -0.7942039 -0.6053951
vn -0.193588 -0.9432507 0.269818
vn -0.7371755 -0.2953973 -0.607711
vn 0.3652311 -0.6874675 -0.6276899
vn 0.35496 -0.9139428 -0.1967533
vn -0.5611689 -0.591617 0.5788597
vn -0.0159802 -0.8256976 0.5638866
vn -0.193588 -0.9432507 0.269818
vn -0.6535976 -0.4993671 0.5687202
vn -0.8898413 0.225041 0.3969118
vn -0.6064903 -0.7504959 -0.2625368
vn 0.35496 -0.9139428 -0.1967533
vn -0.9819374 -0.1271832 0.1400831
vn -0.8385298 0.5446297 0.0156948
vn -0.5037335 0.7511083 -0.4267188
vn -0.347013 0.9347666 0.07611523
vn 0.1257176 0.9854423 -0.1144484
vn 0.3308277 0.8326841 -0.4440611
vn 0.2866128 0.8779763 0.3834196
vn 0.7526048 0.6538543 -0.07784898
vn -0.5293452 0.8354878 0.147492
vn -0.8898413 0.225041 0.3969118
vn -0.9819374 -0.1271832 0.1400831
vn -0.0525723 0.918645 0.3915707
vn -0.6680287 0.6744503 0.314411
vn -0.8898413 0.225041 0.3969118
vn -0.6816046 -0.002281421 0.7317172
vn 0.1222481 0.4975496 -0.8587781
vn -0.5638695 0.04330349 -0.8247279
vn -0.6816046 -0.002281421 0.7317172
vn -0.1804799 0.5335438 0.8262917
vn 0.2268463 -0.07850446 0.9707615
vn -0.6680287 0.6744503 0.314411
vn 0.5209664 0.601724 0.6054108
vn 0.5878584 -0.05024042 0.8074023
vn 0.5798602 0.6296666 0.5169935
vn -0.0525723 0.918645 0.3915707
vn -0.3197935 -0.6494634 0.6898763
vn 0.2700534 -0.6918334 0.6696549
vn 0.5671628 0.6710226 0.477551
vn 0.5878584 -0.05024042 0.8074023
vn 0.8517367 0.1710259 0.4952723
vn 0.2877969 -0.4016852 0.8693802
vn 0.4777158 -0.7610084 0.4389235
vn -0.7788248 0.168091 -0.6042991
vn -0.7371755 -0.2953973 -0.607711
vn -0.2998762 -0.6065496 -0.7363232
vn -0.9123689 0.1934168 -0.360795
vn -0.9819374 -0.1271832 0.1400831
vn -0.6064903 -0.7504959 -0.2625368
vn -0.8385298 0.5446297 0.0156948
vn -0.5037335 0.7511083 -0.4267188
vn -0.7788248 0.168091 -0.6042991
vn -0.5638695 0.04330349 -0.8247279
vn -0.2998762 -0.6065496 -0.7363232
vn -0.08786742 -0.5537067 -0.8280629
vn 0.9100696 -0.1409899 -0.3897373
vn 0.35496 -0.9139428 -0.1967533
vn 0.4777158 -0.7610084 0.4389235
vn -0.0159802 -0.8256976 0.5638866
vn 0.8517367 0.1710259 0.4952723
vn 0.2877969 -0.4016852 0.8693802
vn 0.5878584 -0.05024042 0.8074023
vn -0.2998762 -0.6065496 -0.7363232
vn 0.3652311 -0.6874675 -0.6276899
vn 0.4489468 -0.6211206 -0.642383
vn -0.08786742 -0.5537067 -0.8280629
vn 0.319393 -0.09041467 -0.9432991
vn 0.8462931 0.1189321 -0.5192718
vn 0.1222481 0.4975496 -0.8587781
vn -0.5638695 0.04330349 -0.8247279
vn 0.735067 -0.4272391 -0.526444
vn 0.3308277 0.8326841 -0.4440611
vn -0.0159802 -0.8256976 0.5638866
vn -0.3197935 -0.6494634 0.6898763
vn 0.2700534 -0.6918334 0.6696549
vn -0.5611689 -0.591617 0.5788597
vn 0.5878584 -0.05024042 0.8074023
vn -0.6816046 -0.002281421 0.7317172
vn -0.8898413 0.225041 0.3969118
vn 0.2268463 -0.07850446 0.9707615
vn 0.5209664 0.601724 0.6054108
vn -0.0525723 0.918645 0.3915707
vn 0.5798602 0.6296666 0.5169935
vn 0.2866128 0.8779763 0.3834196
vn 0.5798602 0.6296666 0.5169935
vn -0.0525723 0.918645 0.3915707

vt 0.7886051 0.7841814
vt 0.7875409 0.8361964
vt 0.8108184 0.7898946
vt 0.8019071 0.7571449
vt 0.7759604 0.7574743
vt 0.8270811 0.761962
vt 0.8382998 0.7861415
vt 0.7687497 0.8228062
vt 0.7700654 0.7699508
vt 0.7738984 0.7928991
vt 0.78177 0.7354401
vt 0.8235276 0.7263353
vt 0.78177 0.7354401
vt 0.7469187 0.7292018
vt 0.7759604 0.7574743
vt 0.7650276 0.7190295
vt 0.9132519 0.8332228
vt 0.8994306 0.8669768
vt 0.9336193 0.848143
vt 0.9244931 0.8759763
vt 0.896374 0.8514569
vt 0.9542171 0.841989
vt 0.9599459 0.864795
vt 0.8947697 0.9031129
vt 0.9481468 0.901755
vt 0.9244931 0.8759763
vt 0.8932171 0.8899228
vt 0.8537301 0.8912067
vt 0.8994306 0.8669768
vt 0.9599459 0.864795
vt 0.8810793 0.8768683
vt 0.8602824 0.8674756
vt 0.8616163 0.8179467
vt 0.8242321 0.8435184
vt 0.8189979 0.8091286
vt 0.8382998 0.7861415
vt 0.7875409 0.8361964
vt 0.8108184 0.7898946
vt 0.813195 0.8647624
vt 0.8537301 0.8912067
vt 0.8810793 0.8768683
vt 0.7914141 0.8558071
vt 0.7922001 0.8822168
vt 0.7907742 0.9089234
vt 0.7648335 0.8934394
vt 0.8504889 0.7850779
vt 0.8695712 0.7827486
vt 0.7648335 0.8934394
vt 0.7730048 0.8646037
vt 0.7407076 0.8689971
vt 0.7922001 0.8822168
vt 0.7728108 0.8468726
vt 0.726466 0.8508769
vt 0.7687497 0.8228062
vt 0.7914141 0.8558071
vt 0.7509311 0.8925159
vt 0.7336373 0.8792478
vt 0.7738984 0.7928991
vt 0.7326977 0.7925133
vt 0.7700654 0.7699508
vt 0.736483 0.7725095
vt 0.7429668 0.7575147
vt 0.8804964 0.8258586
vt 0.896374 0.8514569
vt 0.9132519 0.8332228
vt 0.8777605 0.8616056
vt 0.8810793 0.8768683
vt 0.8994306 0.8669768
vt 0.8602824 0.8674756
vt 0.8616163 0.8179467
vt 0.8851712 0.8011171
vt 0.8695712 0.7827486
vt 0.8932267 0.7543193
vt 0.8720539 0.7644405
vt 0.7759604 0.7574743
vt 0.7469187 0.7292018
vt 0.7429668 0.7575147
vt 0.7181342 0.7549388
vt 0.7700654 0.7699508
vt 0.736483 0.7725095
vt 0.7326977 0.7925133
vt 0.8932267 0.7543193
vt 0.8561419 0.7145292
vt 0.8399835 0.7379074
vt 0.8720539 0.7644405
vt 0.8555411 0.7707188
vt 0.8270811 0.761962
vt 0.8504889 0.7850779
vt 0.8695712 0.7827486
vt 0.8235276 0.7263353
vt 0.8382998 0.7861415
vt 0.7045547 0.8890498
vt 0.7509311 0.8925159
vt 0.7336373 0.8792478
vt 0.7502691 0.9199746
vt 0.726466 0.8508769
vt 0.7648335 0.8934394
vt 0.7907742 0.9089234
vt 0.7407076 0.8689971
vt 0.7728108 0.8468726
vt 0.7914141 0.8558071
vt 0.7687497 0.8228062
vt 0.7875409 0.8361964
vt 0.7687497 0.8228062
vt 0.7914141 0.8558071

vt1 0.7126744 0.8198233
vt1 0.8450049 0.9593707
vt1 0.659493 0.8991007
vt1 0.61834 0.7850916
vt1 0.6640856 0.6746971
vt1 0.541665 0.8349305
vt1 0.5361415 0.9593707
vt1 0.837572 0.8840861
vt1 0.7402077 0.6962078
vt1 0.7784235 0.8077081
vt1 0.5576086 0.7095978
vt1 0.5576086 0.7095978
vt1 0.9031841 0.39235
vt1 0.7875509 0.3072431
vt1 0.9941393 0.3098524
vt1 0.8075935 0.3889167
vt1 0.7074801 0.5215302
vt1 0.5361415 0.4592465
vt1 0.7242946 0.4142799
vt1 0.6189917 0.3250578
vt1 0.5846043 0.5365384
vt1 0.8075935 0.3889167
vt1 0.7875509 0.3072431
vt1 0.1126542 0.1504545
vt1 0.3120328 0.1751466
vt1 0.2092133 0.2849637
vt1 0.08227737 0.1940538
vt1 0.005154585 0.0854103
vt1 0.06489203 0.3033369
vt1 0.3627552 0.3033369
vt1 0.00390625 0.205734
vt1 0.3568938 0.5710072
vt1 0.1628947 0.5527654
vt1 0.2597241 0.4372183
vt1 0.1421212 0.3819516
vt1 0.01093105 0.4475755
vt1 0.2835346 0.3072431
vt1 0.07905603 0.3194417
vt1 0.3293946 0.4164277
vt1 0.4220004 0.5153292
vt1 0.4459144 0.6311483
vt1 0.3455732 0.3452234
vt1 0.411597 0.4294772
vt1 0.4220004 0.5153292
vt1 0.5322353 0.4748875
vt1 0.00390625 0.5189695
vt1 0.03406813 0.6311483
vt1 0.422611 0.6810463
vt1 0.3487334 0.7966343
vt1 0.2546137 0.6899695
vt1 0.4605036 0.8098806
vt1 0.2950333 0.8487199
vt1 0.1771047 0.7316778
vt1 0.2089524 0.8652104
vt1 0.3735508 0.8745964
vt1 0.3651427 0.6350546
vt1 0.2222354 0.6391143
vt1 0.1102309 0.8745964
vt1 0.1771047 0.7316778
vt1 0.00390625 0.8204736
vt1 0.1122254 0.6902608
vt1 0.03912621 0.6622244
vt1 0.8123885 0.1499952
vt1 0.6962723 0.05141833
vt1 0.8025553 0.00390625
vt1 0.6593265 0.149873
vt1 0.5801448 0.1438549
vt1 0.614755 0.03742614
vt1 0.6466266 0.2309911
vt1 0.8355892 0.2309911
vt1 0.8123885 0.1499952
vt1 0.9133168 0.1035179
vt1 0.8025553 0.00390625
vt1 0.8991688 0.0149007
vt1 0.5543626 0.2985478
vt1 0.3627552 0.3033369
vt1 0.4214811 0.1925958
vt1 0.3120328 0.1751466
vt1 0.5762385 0.2217367
vt1 0.3942943 0.1216608
vt1 0.3611872 0.05412363
vt1 0.7074801 0.5215302
vt1 0.8075935 0.3889167
vt1 0.8782794 0.4529085
vt1 0.7859005 0.5818009
vt1 0.8741829 0.5942553
vt1 0.972311 0.5023798
vt1 0.9300119 0.6564366
vt1 0.8142732 0.6707909
vt1 0.9031841 0.39235
vt1 0.9941393 0.6288382
vt1 0.3120328 0.1751466
vt1 0.1670446 0.05123353
vt1 0.2612413 0.0614329
vt1 0.1126542 0.1504545
vt1 0.3611872 0.05412363
vt1 0.1030014 0.03022016
vt1 0.005154585 0.0854103
vt1 0.2743451 0.00390625
vt1 0.649047 0.2348974
vt1 0.7067529 0.2883736
vt1 0.5801448 0.2883736
vt1 0.778241 0.2758768
vt1 0.7106591 0.2348974
vt1 0.8372672 0.2348974

vt2 0.7126744 0.8198233
vt2 0.8450049 0.9593707
vt2 0.659493 0.8991007
vt2 0.61834 0.7850916
vt2 0.6640856 0.6746971
vt2 0.541665 0.8349305
vt2 0.5361415 0.9593707
vt2 0.837572 0.8840861
vt2 0.7402077 0.6962078
vt2 0.7784235 0.8077081
vt2 0.5576086 0.7095978
vt2 0.5576086 0.7095978
vt2 0.9031841 0.39235
vt2 0.7875509 0.3072431
vt2 0.9941393 0.3098524
vt2 0.8075935 0.3889167
vt2 0.7074801 0.5215302
vt2 0.5361415 0.4592465
vt2 0.7242946 0.4142799
vt2 0.6189917 0.3250578
vt2 0.5846043 0.5365384
vt2 0.8075935 0.3889167
vt2 0.7875509 0.3072431
vt2 0.1126542 0.1504545
vt2 0.3120328 0.1751466
vt2 0.2092133 0.2849637
vt2 0.08227737 0.1940538
vt2 0.005154585 0.0854103
vt2 0.06489203 0.3033369
vt2 0.3627552 0.3033369
vt2 0.00390625 0.205734
vt2 0.3568938 0.5710072
vt2 0.1628947 0.5527654
vt2 0.2597241 0.4372183
vt2 0.1421212 0.3819516
vt2 0.01093105 0.4475755
vt2 0.2835346 0.3072431
vt2 0.07905603 0.3194417
vt2 0.3293946 0.4164277
vt2 0.4220004 0.5153292
vt2 0.4459144 0.6311483
vt2 0.3455732 0.3452234
vt2 0.411597 0.4294772
vt2 0.4220004 0.5153292
vt2 0.5322353 0.4748875
vt2 0.00390625 0.5189695
vt2 0.03406813 0.6311483
vt2 0.422611 0.6810463
vt2 0.3487334 0.7966343
vt2 0.2546137 0.6899695
vt2 0.4605036 0.8098806
vt2 0.2950333 0.8487199
vt2 0.1771047 0.7316778
vt2 0.2089524 0.8652104
vt2 0.3735508 0.8745964
vt2 0.3651427 0.6350546
vt2 0.2222354 0.6391143
vt2 0.1102309 0.8745964
vt2 0.1771047 0.7316778
vt2 0.00390625 0.8204736
vt2 0.1122254 0.6902608
vt2 0.03912621 0.6622244
vt2 0.8123885 0.1499952
vt2 0.6962723 0.05141833
vt2 0.8025553 0.00390625
vt2 0.6593265 0.149873
vt2 0.5801448 0.1438549
vt2 0.614755 0.03742614
vt2 0.6466266 0.2309911
vt2 0.8355892 0.2309911
vt2 0.8123885 0.1499952
vt2 0.9133168 0.1035179
vt2 0.8025553 0.00390625
vt2 0.8991688 0.0149007
vt2 0.5543626 0.2985478
vt2 0.3627552 0.3033369
vt2 0.4214811 0.1925958
vt2 0.3120328 0.1751466
vt2 0.5762385 0.2217367
vt2 0.3942943 0.1216608
vt2 0.3611872 0.05412363
vt2 0.7074801 0.5215302
vt2 0.8075935 0.3889167
vt2 0.8782794 0.4529085
vt2 0.7859005 0.5818009
vt2 0.8741829 0.5942553
vt2 0.972311 0.5023798
vt2 0.9300119 0.6564366
vt2 0.8142732 0.6707909
vt2 0.9031841 0.39235
vt2 0.9941393 0.6288382
vt2 0.3120328 0.1751466
vt2 0.1670446 0.05123353
vt2 0.2612413 0.0614329
vt2 0.1126542 0.1504545
vt2 0.3611872 0.05412363
vt2 0.1030014 0.03022016
vt2 0.005154585 0.0854103
vt2 0.2743451 0.00390625
vt2 0.649047 0.2348974
vt2 0.7067529 0.2883736
vt2 0.5801448 0.2883736
vt2 0.778241 0.2758768
vt2 0.7106591 0.2348974
vt2 0.8372672 0.2348974

vc 1 1 1 1
vc 1 1 1 1
vc 1 1 1 1
vc 1 1 1 1
vc 1 1 1 1
vc 1 1 1 1
vc 1 1 1 1
vc 1 1 1 1
vc 1 1 1 1
vc 1 1 1 1
vc 1 1 1 1
vc 1 1 1 1
vc 1 1 1 1
vc 1 1 1 1
vc 1 1 1 1
vc 1 1 1 1
vc 1 1 1 1
vc 1 1 1 1
vc 1 1 1 1
vc 1 1 1 1
vc 1 1 1 1
vc 1 1 1 1
vc 1 1 1 1
vc 1 1 1 1
vc 1 1 1 1
vc 1 1 1 1
vc 1 1 1 1
vc 1 1 1 1
vc 1 1 1 1
vc 1 1 1 1
vc 1 1 1 1
vc 1 1 1 1
vc 1 1 1 1
vc 1 1 1 1
vc 1 1 1 1
vc 1 1 1 1
vc 1 1 1 1
vc 1 1 1 1
vc 1 1 1 1
vc 1 1 1 1
vc 1 1 1 1
vc 1 1 1 1
vc 1 1 1 1
vc 1 1 1 1
vc 1 1 1 1
vc 1 1 1 1
vc 1 1 1 1
vc 1 1 1 1
vc 1 1 1 1
vc 1 1 1 1
vc 1 1 1 1
vc 1 1 1 1
vc 1 1 1 1
vc 1 1 1 1
vc 1 1 1 1
vc 1 1 1 1
vc 1 1 1 1
vc 1 1 1 1
vc 1 1 1 1
vc 1 1 1 1
vc 1 1 1 1
vc 1 1 1 1
vc 1 1 1 1
vc 1 1 1 1
vc 1 1 1 1
vc 1 1 1 1
vc 1 1 1 1
vc 1 1 1 1
vc 1 1 1 1
vc 1 1 1 1
vc 1 1 1 1
vc 1 1 1 1
vc 1 1 1 1
vc 1 1 1 1
vc 1 1 1 1
vc 1 1 1 1
vc 1 1 1 1
vc 1 1 1 1
vc 1 1 1 1
vc 1 1 1 1
vc 1 1 1 1
vc 1 1 1 1
vc 1 1 1 1
vc 1 1 1 1
vc 1 1 1 1
vc 1 1 1 1
vc 1 1 1 1
vc 1 1 1 1
vc 1 1 1 1
vc 1 1 1 1
vc 1 1 1 1
vc 1 1 1 1
vc 1 1 1 1
vc 1 1 1 1
vc 1 1 1 1
vc 1 1 1 1
vc 1 1 1 1
vc 1 1 1 1
vc 1 1 1 1
vc 1 1 1 1
vc 1 1 1 1
vc 1 1 1 1
vc 1 1 1 1
vc 1 1 1 1
vc 1 1 1 1
f 1/1/1 3/3/3 2/2/2
f 1/1/1 4/4/4 3/3/3
f 1/1/1 5/5/5 4/4/4
f 4/4/4 6/6/6 3/3/3
f 3/3/3 6/6/6 7/7/7
f 1/1/1 2/2/2 8/8/8
f 9/9/9 5/5/5 1/1/1
f 9/9/9 1/1/1 10/10/10
f 1/1/1 8/8/8 10/10/10
f 5/5/5 11/11/11 4/4/4
f 12/12/12 6/6/6 4/4/4
f 13/13/13 15/15/15 14/14/14
f 16/16/16 13/13/13 14/14/14
f 17/17/17 19/19/19 18/18/18
f 18/18/18 19/19/19 20/20/20
f 18/18/18 21/21/21 17/17/17
f 17/17/17 22/22/22 19/19/19
f 20/20/20 19/19/19 23/23/23
f 19/19/19 22/22/22 23/23/23
f 24/24/24 26/26/26 25/25/25
f 26/26/26 24/24/24 27/27/27
f 24/24/24 28/28/28 27/27/27
f 27/27/27 29/29/29 26/26/26
f 30/30/30 25/25/25 26/26/26
f 27/27/27 31/31/31 29/29/29
f 28/28/28 31/31/31 27/27/27
f 32/32/32 34/34/34 33/33/33
f 35/35/35 33/33/33 34/34/34
f 36/36/36 33/33/33 35/35/35
f 34/34/34 37/37/37 35/35/35
f 38/38/38 36/36/36 35/35/35
f 35/35/35 37/37/37 38/38/38
f 34/34/34 32/32/32 39/39/39
f 39/39/39 37/37/37 34/34/34
f 39/39/39 32/32/32 40/40/40
f 40/40/40 32/32/32 41/41/41
f 42/42/42 37/37/37 39/39/39
f 42/42/42 39/39/39 43/43/43
f 43/43/43 39/39/39 44/44/44
f 43/43/43 44/44/44 45/45/45
f 36/36/36 46/46/46 33/33/33
f 46/46/46 47/47/47 33/33/33
f 48/48/48 50/50/50 49/49/49
f 48/48/48 49/49/49 51/51/51
f 49/49/49 50/50/50 52/52/52
f 53/53/53 52/52/52 50/50/50
f 53/53/53 54/54/54 52/52/52
f 49/49/49 55/55/55 51/51/51
f 55/55/55 49/49/49 52/52/52
f 48/48/48 56/56/56 50/50/50
f 53/53/53 50/50/50 57/57/57
f 58/58/58 54/54/54 59/59/59
f 58/58/58 59/59/59 60/60/60
f 59/59/59 61/61/61 60/60/60
f 62/62/62 60/60/60 61/61/61
f 63/63/63 65/65/65 64/64/64
f 66/66/66 63/63/63 64/64/64
f 64/64/64 67/67/67 66/66/66
f 67/67/67 64/64/64 68/68/68
f 67/67/67 69/69/69 66/66/66
f 69/69/69 63/63/63 66/66/66
f 69/69/69 70/70/70 63/63/63
f 71/71/71 70/70/70 72/72/72
f 71/71/71 72/72/72 73/73/73
f 72/72/72 74/74/74 73/73/73
f 75/75/75 77/77/77 76/76/76
f 78/78/78 76/76/76 77/77/77
f 79/79/79 77/77/77 75/75/75
f 77/77/77 80/80/80 78/78/78
f 78/78/78 80/80/80 81/81/81
f 82/82/82 84/84/84 83/83/83
f 85/85/85 84/84/84 82/82/82
f 85/85/85 86/86/86 84/84/84
f 84/84/84 86/86/86 87/87/87
f 88/88/88 87/87/87 86/86/86
f 86/86/86 89/89/89 88/88/88
f 89/89/89 86/86/86 85/85/85
f 83/83/83 84/84/84 90/90/90
f 84/84/84 87/87/87 90/90/90
f 87/87/87 88/88/88 91/91/91
f 92/92/92 94/94/94 93/93/93
f 92/92/92 93/93/93 95/95/95
f 92/92/92 96/96/96 94/94/94
f 97/97/97 95/95/95 93/93/93
f 95/95/95 97/97/97 98/98/98
f 93/93/93 94/94/94 99/99/99
f 100/100/100 102/102/102 101/101/101
f 103/103/103 105/105/105 104/104/104

