g Exported Mesh Combined Mesh 
v 120.086 3.503937 -90.12769
v 119.3711 4.723822 -91.78935
v 117.8192 3.247711 -92.20533
v 118.5341 2.027826 -90.54367
v 120.1276 -1.918662 -109.4925
v 116.0186 2.352814 -105.2779
v 120.6139 7.877581 -106.3969
v 124.723 3.606105 -110.6115
v 109.1721 9.778447 -82.12777
v 108.6145 14.87372 -87.28721
v 107.0458 9.736835 -92.19068
v 107.6034 4.641557 -87.03124
v 139.8252 -9.289111 -96.42243
v 130.2327 -7.200153 -101.1793
v 135.0909 -0.05379552 -107.8378
v 144.6834 -2.142753 -103.081

vn 0.6218534 -0.4792406 -0.6193761
vn 0.6218534 -0.4792406 -0.6193761
vn 0.6218534 -0.4792406 -0.6193761
vn 0.6218534 -0.4792406 -0.6193761
vn 0.5305991 -0.2792302 0.8003094
vn 0.5305991 -0.2792302 0.8003094
vn 0.5305991 -0.2792302 0.8003094
vn 0.5305991 -0.2792302 0.8003094
vn 0.9734459 -0.1013294 -0.2052694
vn 0.9734459 -0.1013294 -0.2052694
vn 0.9734459 -0.1013294 -0.2052694
vn 0.9734459 -0.1013294 -0.2052694
vn -0.1687695 0.7308893 0.6613
vn -0.1687695 0.7308893 0.6613
vn -0.1687695 0.7308893 0.6613
vn -0.1687695 0.7308893 0.6613

vt 0 0
vt 0 1
vt 1 1
vt 1 0
vt 0 0
vt 0 1
vt 1 1
vt 1 0
vt 0 0
vt 0 1
vt 1 1
vt 1 0
vt 0 0
vt 0 1
vt 1 1
vt 1 0

vt1 0.9961527 0.9961543
vt1 0.003906273 0.9961543
vt1 0.00390625 0.00390625
vt1 0.9961527 0.00390625
vt1 0.9961527 0.9961543
vt1 0.003906273 0.9961543
vt1 0.00390625 0.00390625
vt1 0.9961527 0.00390625
vt1 0.9961527 0.9961543
vt1 0.003906273 0.9961543
vt1 0.00390625 0.00390625
vt1 0.9961527 0.00390625
vt1 0.9961527 0.9961543
vt1 0.003906273 0.9961543
vt1 0.00390625 0.00390625
vt1 0.9961527 0.00390625

vt2 0.9961527 0.9961543
vt2 0.003906273 0.9961543
vt2 0.00390625 0.00390625
vt2 0.9961527 0.00390625
vt2 0.9961527 0.9961543
vt2 0.003906273 0.9961543
vt2 0.00390625 0.00390625
vt2 0.9961527 0.00390625
vt2 0.9961527 0.9961543
vt2 0.003906273 0.9961543
vt2 0.00390625 0.00390625
vt2 0.9961527 0.00390625
vt2 0.9961527 0.9961543
vt2 0.003906273 0.9961543
vt2 0.00390625 0.00390625
vt2 0.9961527 0.00390625

vc 1 1 1 1
vc 1 1 1 1
vc 1 1 1 1
vc 1 1 1 1
vc 1 1 1 1
vc 1 1 1 1
vc 1 1 1 1
vc 1 1 1 1
vc 1 1 1 1
vc 1 1 1 1
vc 1 1 1 1
vc 1 1 1 1
vc 1 1 1 1
vc 1 1 1 1
vc 1 1 1 1
vc 1 1 1 1
f 1/1/1 3/3/3 2/2/2
f 1/1/1 4/4/4 3/3/3
f 5/5/5 7/7/7 6/6/6
f 5/5/5 8/8/8 7/7/7
f 9/9/9 11/11/11 10/10/10
f 9/9/9 12/12/12 11/11/11
f 13/13/13 15/15/15 14/14/14
f 13/13/13 16/16/16 15/15/15

